<svg width="512" height="512" viewBox="0 0 512 512" fill="none" xmlns="http://www.w3.org/2000/svg">
<path d="M255.999 49.4711C323.265 49.4711 331.232 49.7281 357.799 50.9401C382.361 52.0611 395.699 56.1641 404.577 59.6141C415.519 63.6526 425.417 70.0921 433.543 78.4591C441.91 86.5851 448.35 96.483 452.388 107.425C455.838 116.302 459.942 129.641 461.062 154.203C462.274 180.768 462.531 188.735 462.531 256.003C462.531 323.271 462.274 331.236 461.062 357.803C459.941 382.365 455.837 395.703 452.388 404.581C448.197 415.446 441.778 425.313 433.543 433.547C425.309 441.782 415.442 448.201 404.577 452.392C395.7 455.842 382.361 459.946 357.799 461.066C331.239 462.278 323.272 462.535 255.999 462.535C188.726 462.535 180.762 462.278 154.199 461.066C129.637 459.945 116.299 455.841 107.421 452.392C96.479 448.354 86.5811 441.914 78.4551 433.547C70.0881 425.421 63.6487 415.523 59.6101 404.581C56.1601 395.704 52.0561 382.365 50.9361 357.803C49.7241 331.239 49.4671 323.271 49.4671 256.003C49.4671 188.735 49.7241 180.77 50.9361 154.203C52.0571 129.641 56.1601 116.303 59.6101 107.425C63.6491 96.4825 70.0893 86.5842 78.4571 78.4581C86.5832 70.0911 96.4811 63.6517 107.423 59.6131C116.3 56.1631 129.639 52.0591 154.201 50.9391C180.766 49.7271 188.733 49.4701 256.001 49.4701M256.001 4.0791C187.583 4.0791 179.001 4.3691 152.135 5.5951C125.32 6.8191 107.008 11.0771 90.9841 17.3051C74.1747 23.6307 58.9474 33.5469 46.3641 46.3621C33.546 58.9446 23.6271 74.172 17.2991 90.9821C11.0761 107.007 6.81812 125.319 5.59912 152.134C4.36812 179 4.07812 187.582 4.07812 256C4.07812 324.418 4.36812 333 5.59912 359.866C6.82312 386.681 11.0811 404.993 17.3091 421.017C23.6348 437.826 33.5509 453.054 46.3661 465.637C58.9494 478.452 74.1767 488.369 90.9861 494.694C107.011 500.922 125.323 505.18 152.137 506.404C179.007 507.63 187.586 507.92 256.003 507.92C324.42 507.92 333.003 507.63 359.869 506.404C386.684 505.18 404.996 500.922 421.02 494.694C437.755 488.222 452.953 478.325 465.64 465.637C478.328 452.95 488.225 437.752 494.697 421.017C500.925 404.992 505.183 386.68 506.407 359.866C507.633 332.996 507.923 324.417 507.923 256C507.923 187.583 507.633 179 506.407 152.134C505.183 125.319 500.925 107.007 494.697 90.9831C488.372 74.1737 478.455 58.9464 465.64 46.3631C453.057 33.5453 437.828 23.6271 421.017 17.3001C404.992 11.0771 386.68 6.8191 359.865 5.6001C332.999 4.3691 324.417 4.0791 255.999 4.0791H256.001Z" fill="#E5E5E6"/>
<path d="M256 126.635C230.414 126.635 205.402 134.222 184.128 148.437C162.855 162.652 146.273 182.856 136.482 206.494C126.691 230.132 124.129 256.143 129.121 281.238C134.112 306.332 146.433 329.383 164.525 347.475C182.617 365.567 205.668 377.887 230.762 382.879C255.856 387.871 281.867 385.309 305.506 375.517C329.144 365.726 349.348 349.145 363.563 327.871C377.778 306.597 385.365 281.586 385.365 256C385.365 221.69 371.735 188.786 347.475 164.525C323.214 140.264 290.31 126.635 256 126.635ZM256 339.973C239.392 339.973 223.156 335.047 209.347 325.82C195.538 316.593 184.775 303.478 178.42 288.134C172.064 272.79 170.401 255.906 173.641 239.617C176.882 223.328 184.879 208.365 196.623 196.622C208.367 184.878 223.33 176.88 239.619 173.64C255.908 170.4 272.792 172.063 288.136 178.419C303.48 184.775 316.595 195.538 325.822 209.347C335.049 223.156 339.974 239.392 339.974 256C339.974 278.271 331.126 299.63 315.378 315.378C299.63 331.126 278.271 339.973 256 339.973Z" fill="#E5E5E6"/>
<path d="M390.476 151.754C407.172 151.754 420.706 138.22 420.706 121.524C420.706 104.828 407.172 91.2939 390.476 91.2939C373.781 91.2939 360.246 104.828 360.246 121.524C360.246 138.22 373.781 151.754 390.476 151.754Z" fill="#E5E5E6"/>
</svg>
